<svg width="21" height="18" viewBox="0 0 21 18" fill="none" xmlns="http://www.w3.org/2000/svg">
<path d="M7.25 17.25C7.66421 17.25 8 16.9142 8 16.5C8 16.0858 7.66421 15.75 7.25 15.75C6.83579 15.75 6.5 16.0858 6.5 16.5C6.5 16.9142 6.83579 17.25 7.25 17.25Z" stroke="black" stroke-width="1.5" stroke-linecap="round" stroke-linejoin="round"/>
<path d="M17.75 17.25C18.1642 17.25 18.5 16.9142 18.5 16.5C18.5 16.0858 18.1642 15.75 17.75 15.75C17.3358 15.75 17 16.0858 17 16.5C17 16.9142 17.3358 17.25 17.75 17.25Z" stroke="black" stroke-width="1.5" stroke-linecap="round" stroke-linejoin="round"/>
<path d="M1.25 0.749817H4.25L6.5 13.4998H18.5" stroke="black" stroke-width="1.5" stroke-linecap="round" stroke-linejoin="round"/>
<path d="M6.5 10.5005H18.1925C18.2792 10.5005 18.3633 10.4705 18.4304 10.4156C18.4975 10.3606 18.5434 10.2841 18.5605 10.1991L19.9105 3.44908C19.9214 3.39465 19.92 3.33848 19.9066 3.28463C19.8931 3.23078 19.8679 3.18058 19.8327 3.13766C19.7975 3.09474 19.7532 3.06018 19.703 3.03646C19.6528 3.01273 19.598 3.00045 19.5425 3.00049H5" stroke="black" stroke-width="1.5" stroke-linecap="round" stroke-linejoin="round"/>
</svg>
