<svg width="22" height="22" viewBox="0 0 22 22" fill="none" xmlns="http://www.w3.org/2000/svg">
<path d="M20.3413 0.499359H1.65971C1.3523 0.499483 1.05752 0.621655 0.840153 0.839024C0.622784 1.05639 0.500613 1.35117 0.500488 1.65858V20.3401C0.500613 20.6475 0.622784 20.9423 0.840153 21.1597C1.05752 21.3771 1.3523 21.4992 1.65971 21.4993H11.0005V13.2494H8.49033V10.2494H11.0005V7.85873C11.0005 5.14654 12.8816 3.66998 15.3045 3.66998C16.4638 3.66998 17.7106 3.75717 18.0003 3.79561V6.62826H16.07C14.7519 6.62826 14.5006 7.2517 14.5006 8.17045V10.2494H17.6413L17.2311 13.2494H14.5006V21.4993H20.3413C20.6487 21.4992 20.9434 21.3771 21.1608 21.1597C21.3782 20.9423 21.5004 20.6475 21.5005 20.3401V1.65858C21.5004 1.35117 21.3782 1.05639 21.1608 0.839024C20.9434 0.621655 20.6487 0.499483 20.3413 0.499359Z" fill="black"/>
</svg>
