<svg width="22" height="22" viewBox="0 0 22 22" fill="none" xmlns="http://www.w3.org/2000/svg">
<path d="M11 0.499756C5.20156 0.499756 0.5 5.32319 0.5 11.2669C0.5 16.0247 3.50937 20.056 7.68125 21.481C7.73976 21.4937 7.79949 21.5 7.85937 21.4997C8.24843 21.4997 8.39843 21.2138 8.39843 20.9654C8.39843 20.7076 8.38906 20.0326 8.38437 19.1326C8.03705 19.214 7.68173 19.2564 7.325 19.2591C5.30469 19.2591 4.84531 17.6888 4.84531 17.6888C4.36719 16.4466 3.67812 16.1138 3.67812 16.1138C2.76406 15.4716 3.67344 15.4529 3.74375 15.4529H3.74844C4.80312 15.5466 5.35625 16.5685 5.35625 16.5685C5.88125 17.4872 6.58437 17.7451 7.2125 17.7451C7.62783 17.7368 8.03673 17.6409 8.4125 17.4638C8.50625 16.7701 8.77812 16.2966 9.07812 16.0247C6.74843 15.7529 4.29687 14.8294 4.29687 10.7044C4.29687 9.52787 4.70469 8.56694 5.375 7.81694C5.26718 7.54506 4.90625 6.44819 5.47812 4.96694C5.55483 4.94858 5.63367 4.9407 5.7125 4.9435C6.09218 4.9435 6.95 5.08881 8.36562 6.07319C10.0857 5.59193 11.9049 5.59193 13.625 6.07319C15.0406 5.08881 15.8984 4.9435 16.2781 4.9435C16.3569 4.9407 16.4358 4.94858 16.5125 4.96694C17.0844 6.44819 16.7234 7.54506 16.6156 7.81694C17.2859 8.57163 17.6937 9.53256 17.6937 10.7044C17.6937 14.8388 15.2375 15.7482 12.8984 16.0154C13.2734 16.3482 13.6109 17.0044 13.6109 18.0076C13.6109 19.4466 13.5969 20.6091 13.5969 20.9607C13.5969 21.2138 13.7422 21.4997 14.1312 21.4997C14.1942 21.5 14.2571 21.4937 14.3187 21.481C18.4953 20.056 21.5 16.0201 21.5 11.2669C21.5 5.32319 16.7984 0.499756 11 0.499756Z" fill="black"/>
</svg>
