<svg width="24" height="24" viewBox="0 0 24 24" fill="none" xmlns="http://www.w3.org/2000/svg">
<path d="M16.9998 1.99982C18.3248 2.00378 19.5943 2.53187 20.5312 3.46876C21.4681 4.40566 21.9962 5.67522 22.0002 7.00018V16.9998C21.9962 18.3248 21.4681 19.5943 20.5312 20.5312C19.5943 21.4681 18.3248 21.9962 16.9998 22.0002H7.00018C5.67522 21.9962 4.40566 21.4681 3.46876 20.5312C2.53187 19.5943 2.00378 18.3248 1.99982 16.9998V7.00018C2.00378 5.67522 2.53187 4.40566 3.46876 3.46876C4.40566 2.53187 5.67522 2.00378 7.00018 1.99982H16.9998V1.99982ZM16.9998 0H7.00018C3.15 0 0 3.15 0 7.00018V16.9998C0 20.85 3.15 24 7.00018 24H16.9998C20.85 24 24 20.85 24 16.9998V7.00018C24 3.15 20.85 0 16.9998 0V0Z" fill="#1B1B1B"/>
<path d="M12.001 7.99909C12.7921 7.99909 13.5655 8.2337 14.2234 8.67324C14.8812 9.11279 15.3939 9.73753 15.6967 10.4685C15.9994 11.1994 16.0786 12.0037 15.9243 12.7797C15.7699 13.5556 15.389 14.2684 14.8295 14.8278C14.2701 15.3873 13.5573 15.7682 12.7814 15.9226C12.0054 16.0769 11.2011 15.9977 10.4702 15.6949C9.73924 15.3922 9.1145 14.8795 8.67495 14.2216C8.23541 13.5638 8.0008 12.7904 8.0008 11.9993C8.00193 10.9387 8.42374 9.9219 9.17368 9.17197C9.92361 8.42203 10.9404 8.00022 12.001 7.99909V7.99909ZM12.001 5.99927C10.8143 5.99927 9.65425 6.35116 8.66756 7.01045C7.68086 7.66974 6.91183 8.60681 6.4577 9.70317C6.00358 10.7995 5.88476 12.0059 6.11627 13.1698C6.34778 14.3337 6.91922 15.4028 7.75834 16.2419C8.59745 17.081 9.66655 17.6525 10.8304 17.884C11.9943 18.1155 13.2007 17.9967 14.2971 17.5425C15.3934 17.0884 16.3305 16.3194 16.9898 15.3327C17.6491 14.346 18.001 13.186 18.001 11.9993C18.001 10.408 17.3688 8.88184 16.2436 7.75663C15.1184 6.63141 13.5923 5.99927 12.001 5.99927V5.99927Z" fill="#1B1B1B"/>
</svg>
