<svg width="22" height="22" viewBox="0 0 22 22" fill="none" xmlns="http://www.w3.org/2000/svg">
<path d="M19.8205 0.500732H2.29437C1.33672 0.500732 0.5 1.18979 0.5 2.1362V19.7012C0.5 20.6528 1.33672 21.5007 2.29437 21.5007H19.8153C20.7781 21.5007 21.5 20.6471 21.5 19.7012V2.1362C21.5056 1.18979 20.7781 0.500732 19.8205 0.500732ZM7.00953 18.0053H4.00109V8.65135H7.00953V18.0053ZM5.60937 7.22917H5.58781C4.625 7.22917 4.00156 6.51245 4.00156 5.61526C4.00156 4.70167 4.6414 4.00182 5.62578 4.00182C6.61015 4.00182 7.2125 4.69651 7.23406 5.61526C7.23359 6.51245 6.61015 7.22917 5.60937 7.22917ZM18.0045 18.0053H14.9961V12.8907C14.9961 11.6654 14.5583 10.8282 13.4698 10.8282C12.6383 10.8282 12.1461 11.3907 11.9272 11.9387C11.8451 12.1356 11.8231 12.4037 11.8231 12.6774V18.0053H8.81468V8.65135H11.8231V9.95307C12.2609 9.32963 12.9448 8.43245 14.5362 8.43245C16.5111 8.43245 18.005 9.73417 18.005 12.5406L18.0045 18.0053Z" fill="black"/>
</svg>
