<svg width="24" height="18" viewBox="0 0 24 18" fill="none" xmlns="http://www.w3.org/2000/svg">
<path d="M23.2499 2.13325C22.4059 2.49997 21.5129 2.74158 20.5991 2.85043C21.5594 2.28811 22.2816 1.39476 22.6302 0.337935C21.7223 0.868837 20.7306 1.24134 19.6977 1.4395C19.2627 0.983652 18.7396 0.621015 18.1602 0.373628C17.5807 0.126241 16.957 -0.000729313 16.3269 0.000435184C13.776 0.000435184 11.7116 2.03481 11.7116 4.54262C11.7098 4.89145 11.7498 5.23924 11.8307 5.57856C10.0014 5.4928 8.21028 5.02617 6.57174 4.20852C4.93321 3.39087 3.48339 2.2402 2.31503 0.830122C1.90515 1.52112 1.68838 2.30952 1.68738 3.11293C1.68738 4.68793 2.5091 6.08012 3.74988 6.89574C3.01475 6.8783 2.29469 6.68373 1.65082 6.32856V6.38481C1.65082 8.58793 3.24456 10.4207 5.35394 10.8379C4.95727 10.9437 4.54852 10.9972 4.138 10.9973C3.84671 10.9978 3.55608 10.9695 3.27035 10.9129C3.85675 12.7176 5.56347 14.0301 7.58519 14.0676C5.9424 15.3337 3.92548 16.018 1.85144 16.0129C1.48329 16.0124 1.11549 15.9905 0.749878 15.9473C2.8598 17.2946 5.31243 18.0072 7.81581 18.0004C16.3171 18.0004 20.9614 11.077 20.9614 5.07231C20.9614 4.87543 20.9563 4.67856 20.9469 4.48637C21.8483 3.84515 22.6282 3.0483 23.2499 2.13325Z" fill="black"/>
</svg>
