<svg width="153" height="24" viewBox="0 0 153 24" fill="none" xmlns="http://www.w3.org/2000/svg">
<path d="M19.32 23H15.16V7.096H19.32V23ZM15.384 15.352L15.416 16.44C15.3733 16.7387 15.2667 17.176 15.096 17.752C14.9253 18.3067 14.6587 18.904 14.296 19.544C13.9547 20.184 13.5067 20.8027 12.952 21.4C12.3973 21.976 11.7147 22.456 10.904 22.84C10.0933 23.2027 9.13333 23.384 8.024 23.384C7.14933 23.384 6.28533 23.2773 5.432 23.064C4.6 22.8507 3.84267 22.4987 3.16 22.008C2.47733 21.496 1.93333 20.8133 1.528 19.96C1.12267 19.1067 0.92 18.0293 0.92 16.728V7.096H5.08V16.024C5.08 17.048 5.24 17.8587 5.56 18.456C5.90133 19.032 6.392 19.4373 7.032 19.672C7.672 19.9067 8.42933 20.024 9.304 20.024C10.456 20.024 11.448 19.7787 12.28 19.288C13.112 18.776 13.784 18.1573 14.296 17.432C14.8293 16.7067 15.192 16.0133 15.384 15.352ZM23.1075 7.096H27.2675V23H23.1075V7.096ZM33.3795 10.52C32.1848 10.52 31.1502 10.7547 30.2755 11.224C29.4008 11.672 28.6968 12.2267 28.1635 12.888C27.6302 13.5493 27.2568 14.1893 27.0435 14.808L27.0115 13.048C27.0328 12.792 27.1182 12.4187 27.2675 11.928C27.4168 11.416 27.6408 10.872 27.9395 10.296C28.2382 9.69867 28.6328 9.13333 29.1235 8.6C29.6142 8.04533 30.2115 7.59733 30.9155 7.256C31.6195 6.91467 32.4408 6.744 33.3795 6.744V10.52ZM48.2073 23.352C46.7993 23.352 45.5939 23.1067 44.5913 22.616C43.5886 22.104 42.7779 21.4427 42.1593 20.632C41.5406 19.8 41.0819 18.904 40.7833 17.944C40.4846 16.9627 40.3353 16.0027 40.3353 15.064C40.3353 13.8907 40.4739 12.8027 40.7513 11.8C41.0499 10.7973 41.5086 9.92267 42.1273 9.176C42.7459 8.408 43.5566 7.81067 44.5593 7.384C45.5619 6.95733 46.7779 6.744 48.2073 6.744C49.8499 6.744 51.3006 7.096 52.5593 7.8C53.8393 8.48267 54.8419 9.44267 55.5673 10.68C56.3139 11.9173 56.6873 13.3787 56.6873 15.064C56.6873 16.7067 56.3139 18.1573 55.5673 19.416C54.8206 20.6533 53.8073 21.624 52.5273 22.328C51.2473 23.0107 49.8073 23.352 48.2073 23.352ZM46.8633 20.152C47.9939 20.152 48.9753 19.9387 49.8073 19.512C50.6393 19.0853 51.2793 18.4987 51.7273 17.752C52.1966 16.984 52.4313 16.088 52.4313 15.064C52.4313 13.528 51.9406 12.2907 50.9593 11.352C49.9993 10.4133 48.6339 9.944 46.8633 9.944C45.6259 9.944 44.5486 10.1467 43.6313 10.552C42.7139 10.9573 41.9993 11.544 41.4873 12.312C40.9966 13.0587 40.7513 13.976 40.7513 15.064C40.7513 16.0667 40.9966 16.952 41.4873 17.72C41.9779 18.488 42.6819 19.0853 43.5993 19.512C44.5166 19.9387 45.6046 20.152 46.8633 20.152ZM40.7513 0.695999V18.904C40.7513 19.5867 40.7193 20.3227 40.6553 21.112C40.5913 21.88 40.5273 22.5093 40.4633 23H36.5913V0.695999H40.7513ZM67.5078 23.352C65.9291 23.352 64.4891 23.0107 63.1878 22.328C61.9078 21.624 60.8838 20.6533 60.1158 19.416C59.3691 18.1573 58.9958 16.7067 58.9958 15.064C58.9958 13.3787 59.3798 11.9173 60.1478 10.68C60.9158 9.44267 61.9504 8.48267 63.2518 7.8C64.5744 7.096 66.0678 6.744 67.7318 6.744C69.5664 6.744 71.0384 7.11733 72.1478 7.864C73.2784 8.58933 74.0998 9.58133 74.6118 10.84C75.1238 12.0987 75.3798 13.5067 75.3798 15.064C75.3798 16.0027 75.2304 16.9627 74.9318 17.944C74.6331 18.904 74.1744 19.8 73.5558 20.632C72.9371 21.4427 72.1264 22.104 71.1238 22.616C70.1211 23.1067 68.9158 23.352 67.5078 23.352ZM68.8518 20.152C70.1104 20.152 71.1984 19.9387 72.1158 19.512C73.0331 19.0853 73.7371 18.488 74.2278 17.72C74.7184 16.952 74.9638 16.0667 74.9638 15.064C74.9638 13.976 74.7078 13.0587 74.1958 12.312C73.7051 11.544 73.0011 10.968 72.0838 10.584C71.1878 10.1787 70.1104 9.976 68.8518 9.976C67.0811 9.976 65.7051 10.4453 64.7238 11.384C63.7424 12.3013 63.2518 13.528 63.2518 15.064C63.2518 16.088 63.4864 16.984 63.9558 17.752C64.4251 18.4987 65.0758 19.0853 65.9078 19.512C66.7611 19.9387 67.7424 20.152 68.8518 20.152ZM74.9638 7.096H79.1238V23H75.2518C75.2518 23 75.2198 22.7973 75.1558 22.392C75.1131 21.9653 75.0704 21.432 75.0278 20.792C74.9851 20.152 74.9638 19.5227 74.9638 18.904V7.096Z" fill="black"/>
<path d="M104.425 18.776L103.081 19.32V2.296H107.337V23H103.081L86.3448 6.648L87.6888 6.104V23H83.4328V2.296H87.6888L104.425 18.776ZM119.477 23.352C117.898 23.352 116.458 23.0107 115.157 22.328C113.877 21.624 112.853 20.6533 112.085 19.416C111.338 18.1573 110.965 16.7067 110.965 15.064C110.965 13.3787 111.349 11.9173 112.117 10.68C112.885 9.44267 113.919 8.48267 115.221 7.8C116.543 7.096 118.037 6.744 119.701 6.744C121.535 6.744 123.007 7.11733 124.117 7.864C125.247 8.58933 126.069 9.58133 126.581 10.84C127.093 12.0987 127.349 13.5067 127.349 15.064C127.349 16.0027 127.199 16.9627 126.901 17.944C126.602 18.904 126.143 19.8 125.525 20.632C124.906 21.4427 124.095 22.104 123.093 22.616C122.09 23.1067 120.885 23.352 119.477 23.352ZM120.821 20.152C122.079 20.152 123.167 19.9387 124.085 19.512C125.002 19.0853 125.706 18.488 126.197 17.72C126.687 16.952 126.933 16.0667 126.933 15.064C126.933 13.976 126.677 13.0587 126.165 12.312C125.674 11.544 124.97 10.968 124.053 10.584C123.157 10.1787 122.079 9.976 120.821 9.976C119.05 9.976 117.674 10.4453 116.693 11.384C115.711 12.3013 115.221 13.528 115.221 15.064C115.221 16.088 115.455 16.984 115.925 17.752C116.394 18.4987 117.045 19.0853 117.877 19.512C118.73 19.9387 119.711 20.152 120.821 20.152ZM126.933 7.096H131.093V23H127.221C127.221 23 127.189 22.7973 127.125 22.392C127.082 21.9653 127.039 21.432 126.997 20.792C126.954 20.152 126.933 19.5227 126.933 18.904V7.096ZM143.626 20.28H142.122L147.946 7.096H152.49L144.842 23H140.906L133.418 7.096H137.994L143.626 20.28Z" fill="#E6B939"/>
</svg>
